<svg width="320" height="1171" viewBox="0 0 320 1171" fill="none" xmlns="http://www.w3.org/2000/svg">
<path opacity="0.5" d="M-0.0177882 293.975V71.5372V32.2673C-2.22776 12.4024 -0.0177882 0 -0.0177882 0V32.2673C2.68285 56.5427 11.984 91.9623 39.9844 129.512C90.8982 197.788 17.3058 219.195 33.9841 293.975C58.2786 402.903 167.661 378.225 204.494 362.534C242.496 346.345 281.467 395.617 286.998 470.951C292.53 546.285 243.686 596.327 223.73 599.89C203.774 603.453 165.065 618.389 158.491 665.218C148.773 734.444 193.832 741.565 223.73 759.211C248.783 773.997 326.981 800.949 319.498 949.58C309.026 1157.56 246.614 1171 212.016 1171H140.651C159.415 1082.94 219.391 1087.52 236.636 936.346C254.381 780.786 105.65 837.775 71.4862 719.181C65.0401 696.805 41.0549 624.382 52.9852 573.481C67.148 513.055 203.882 568.331 215.921 484.854C227.96 401.376 78.1567 516.278 25.4836 435.63C-3.278 391.592 -0.0177882 293.975 -0.0177882 293.975Z" fill="url(#paint0_linear)"/>
<defs>
<linearGradient id="paint0_linear" x1="-0.517189" y1="659.96" x2="272.887" y2="659.96" gradientUnits="userSpaceOnUse">
<stop stop-color="#2AA5E4" stop-opacity="0.4"/>
<stop offset="1" stop-color="#2AA5E4" stop-opacity="0.1"/>
</linearGradient>
</defs>
</svg>
